<svg xmlns="http://www.w3.org/2000/svg" width="100mm" height="100mm" viewBox="0 0 90 90">
<path style="fill:#ffffff; stroke:none;" d="M0 0L0 90L90 90L90 0L0 0z"></path>
<path style="fill:#000000; stroke:none;" d="M10 10L10 80L80 80L80 10L10 10z"></path>
<path style="fill:#ffffff; stroke:none;" d="M30 20L30 30L20 30L20 50L30 50L30 30L40 30L40 40L50 40L50 50L40 50L40 60L30 60L30 70L60 70L60 60L70 60L70 50L60 50L60 40L70 40L70 20L60 20L60 30L50 30L50 20L30 20z"></path>
<path style="fill:#000000; stroke:none;" d="M50 50L50 60L60 60L60 50L50 50z"></path>
</svg>