<svg xmlns="http://www.w3.org/2000/svg" width="100mm" height="100mm" viewBox="0 0 90 90">
<path style="fill:#ffffff; stroke:none;" d="M0 0L0 90L90 90L90 0L0 0z"></path>
<path style="fill:#000000; stroke:none;" d="M10 10L10 80L80 80L80 10L10 10z"></path>
<path style="fill:#ffffff; stroke:none;" d="M20 20L20 50L30 50L30 70L50 70L50 60L60 60L60 70L70 70L70 60L60 60L60 40L70 40L70 30L60 30L60 20L20 20z"></path>
<path style="fill:#000000; stroke:none;" d="M30 30L30 50L50 50L50 40L60 40L60 30L50 30L50 40L40 40L40 30L30 30z"></path>
</svg>