<svg xmlns="http://www.w3.org/2000/svg" width="100mm" height="100mm" viewBox="0 0 90 90">
<path style="fill:#ffffff; stroke:none;" d="M0 0L0 90L90 90L90 0L0 0z"></path>
<path style="fill:#000000; stroke:none;" d="M10 10L10 80L80 80L80 10L10 10z"></path>
<path style="fill:#ffffff; stroke:none;" d="M20 20L20 40L30 40L30 50L20 50L20 60L30 60L30 50L40 50L40 70L70 70L70 50L40 50L40 40L50 40L50 30L60 30L60 40L70 40L70 20L50 20L50 30L40 30L40 20L20 20z"></path>
<path style="fill:#000000; stroke:none;" d="M30 30L30 40L40 40L40 30L30 30z"></path>
</svg>