<svg xmlns="http://www.w3.org/2000/svg" width="100mm" height="100mm" viewBox="0 0 90 90">
<path style="fill:#ffffff; stroke:none;" d="M0 0L0 90L90 90L90 0L0 0z"></path>
<path style="fill:#000000; stroke:none;" d="M10 10L10 80L80 80L80 10L10 10z"></path>
<path style="fill:#ffffff; stroke:none;" d="M50 20L50 50L40 50L40 60L20 60L20 70L40 70L40 60L50 60L50 70L70 70L70 50L60 50L60 30L70 30L70 20L50 20M30 30L30 40L20 40L20 50L30 50L30 40L40 40L40 30L30 30z"></path>
<path style="fill:#000000; stroke:none;" d="M50 50L50 60L60 60L60 50L50 50z"></path>
</svg>