<svg xmlns="http://www.w3.org/2000/svg" width="100mm" height="100mm" viewBox="0 0 90 90">
<path style="fill:#ffffff; stroke:none;" d="M0 0L0 90L90 90L90 0L0 0z"></path>
<path style="fill:#000000; stroke:none;" d="M10 10L10 80L80 80L80 10L10 10z"></path>
<path style="fill:#ffffff; stroke:none;" d="M40 20L40 30L30 30L30 40L20 40L20 60L40 60L40 70L60 70L60 60L70 60L70 40L60 40L60 30L70 30L70 20L40 20z"></path>
<path style="fill:#000000; stroke:none;" d="M30 40L30 50L40 50L40 40L30 40M50 40L50 50L60 50L60 40L50 40z"></path>
</svg>